<svg xmlns="http://www.w3.org/2000/svg" viewBox="1318 662 52 64" role="img" aria-hidden="true">
  <title>EPOCH crescent-O mark</title>
  <defs>
    <style>
      .logo-o__cream {
        fill: #e9dcc5;
        filter: drop-shadow(0 0 1.5px #00e5cc) drop-shadow(0 0 4px rgba(0, 229, 204, 0.45))
          drop-shadow(0 0 10px rgba(0, 229, 204, 0.18));
      }
      .logo-o__eclipse {
        fill: #0a0a0a;
      }
    </style>
  </defs>
  <!-- Cream ring / visible crescent (drawn first) -->
  <path
    class="logo-o__cream"
    d="M 1344.2801 665.1912 C 1342.5764 665.13091 1340.8143 665.21475 1339.0006 665.45975 C 1335.2585 666.29308 1331.8648 667.51404 1328.8565 669.12186 C 1328.7741 669.1659 1328.6819 669.19929 1328.6002 669.24393 C 1328.5962 669.24607 1328.5919 669.24789 1328.588 669.25003 C 1327.5694 669.8066 1326.5943 670.41286 1325.6705 671.06277 C 1328.7228 669.2124 1332.0441 668.15764 1335.9976 667.30911 C 1337.9376 667.20911 1339.0025 667.02911 1341.0025 667.30911 C 1345.1725 667.49911 1349.422 668.7685 1353.002 670.9285 C 1377.062 685.4285 1364.3596 721.81762 1337.9996 719.81762 C 1330.0252 719.20999 1323.5271 715.43456 1319.1763 710.08863 C 1319.9403 711.18531 1320.7778 712.23031 1321.6788 713.21973 C 1321.8019 713.35494 1321.9439 713.47122 1322.0694 713.60425 C 1322.8644 714.44699 1323.6884 715.26654 1324.5718 716.01514 C 1324.6029 716.04149 1324.6383 716.06215 1324.6695 716.08838 C 1325.6631 716.92374 1326.7056 717.69984 1327.7945 718.40161 C 1328.9113 719.12114 1330.0737 719.76808 1331.2735 720.33032 C 1331.2792 720.333 1331.2861 720.33374 1331.2918 720.33642 C 1333.7021 721.46419 1336.2587 722.25923 1338.8968 722.64965 C 1338.9007 722.65024 1338.9051 722.64907 1338.909 722.64965 C 1339.5664 722.74652 1340.2327 722.82361 1340.8987 722.86938 C 1341.57 722.91552 1342.2473 722.93226 1342.9251 722.92431 C 1344.2763 722.90834 1345.6385 722.78354 1347.0023 722.53979 C 1351.7923 721.67979 1357.1676 719.63718 1360.9976 716.60718 C 1361.6655 716.0773 1362.2936 715.53255 1362.8958 714.97144 C 1363.2764 714.61695 1363.6213 714.24487 1363.9761 713.87891 C 1364.2098 713.63775 1364.4615 713.40456 1364.6841 713.15869 C 1364.9946 712.81584 1365.2739 712.46039 1365.563 712.10889 C 1365.7788 711.84655 1366.006 711.58841 1366.21 711.32154 C 1366.4646 710.98852 1366.6938 710.64799 1366.9302 710.30835 C 1367.1644 709.97186 1367.4033 709.63769 1367.6199 709.29517 C 1367.7965 709.0159 1367.9554 708.72978 1368.1204 708.44678 C 1368.3382 708.07314 1368.5574 707.70336 1368.7552 707.32374 C 1368.9377 706.97354 1369.1022 706.61654 1369.2679 706.26172 C 1369.4162 705.94404 1369.5663 705.62451 1369.7012 705.30347 C 1369.8526 704.9435 1369.9876 704.5808 1370.1224 704.21705 C 1370.2525 703.8656 1370.3798 703.51569 1370.4947 703.16114 C 1370.6144 702.79176 1370.7271 702.42258 1370.8304 702.0503 C 1370.8962 701.81296 1370.9542 701.57456 1371.0135 701.33619 C 1371.3187 700.10807 1371.5387 698.86444 1371.6726 697.61915 C 1371.6934 697.42606 1371.7048 697.23259 1371.7215 697.03932 C 1371.7915 696.23148 1371.7755 695.4244 1371.7764 694.61622 C 1371.7771 693.83939 1371.7706 693.0638 1371.7093 692.29079 C 1371.6561 691.61951 1371.5639 690.95438 1371.4651 690.28884 C 1371.3482 689.50254 1371.2106 688.71933 1371.0318 687.94509 C 1370.8844 687.30726 1370.7134 686.67385 1370.5252 686.04689 C 1370.296 685.28416 1370.0381 684.53122 1369.75 683.7886 C 1369.5123 683.1756 1369.2577 682.5724 1368.981 681.97585 C 1368.6464 681.25483 1368.2783 680.55094 1367.8885 679.85793 C 1367.5665 679.28572 1367.2399 678.71765 1366.8814 678.16726 C 1366.4374 677.48568 1365.9514 676.83361 1365.4532 676.18972 C 1365.0646 675.68769 1364.6774 675.18315 1364.2569 674.70657 C 1363.6974 674.07252 1363.0888 673.48436 1362.4747 672.89993 C 1361.9652 672.41513 1361.4762 671.91297 1360.9305 671.46561 C 1360.7547 671.32152 1360.5789 671.17836 1360.3995 671.03836 C 1359.4371 670.28753 1358.424 669.5934 1357.3599 668.96927 C 1357.0536 668.78957 1356.7405 668.61885 1356.4261 668.45047 C 1356.1447 668.29983 1355.8654 668.14621 1355.5777 668.00491 C 1355.1765 667.80786 1354.7642 667.62778 1354.3509 667.4495 C 1354.0733 667.32979 1353.7976 667.20646 1353.5147 667.09549 C 1353.0871 666.92773 1352.6481 666.77881 1352.2085 666.63162 C 1351.9203 666.53513 1351.6351 666.43214 1351.3419 666.34476 C 1350.8854 666.20875 1350.4186 666.09794 1349.9502 665.98465 C 1349.6529 665.91272 1349.3612 665.83355 1349.0591 665.77103 C 1348.5739 665.67062 1348.073 665.5962 1347.576 665.52079 C 1347.2881 665.47712 1347.0071 665.41547 1346.7154 665.3804 C 1345.9165 665.28433 1345.1071 665.22046 1344.2801 665.1912 z M 1315.0809 701.53761 C 1315.2987 702.30019 1315.5492 703.04946 1315.8316 703.7898 C 1315.5486 703.0487 1315.2992 702.30101 1315.0809 701.53761 z M 1316.8631 706.15796 C 1317.1835 706.81299 1317.526 707.4506 1317.8946 708.08057 C 1317.527 707.45226 1317.1829 706.81118 1316.8631 706.15796 z"
  />
  <!-- Eclipse disk (on top of cream) -->
  <path
    class="logo-o__eclipse"
    d="m 1339,665.46 c 29.02,-3.92 44.74,33.11 22,51.15 -3.83,3.03 -9.21,5.07 -14,5.93 -17.4,3.11 -34.5,-13.02 -32.82,-30.54 1.42,-14.9 10.72,-23.4 24.82,-26.54 z"
  />
</svg>
