<?xml version="1.0" encoding="UTF-8" standalone="no"?>
<svg
   version="1.1"
   width="29.085878in"
   height="29.070204in"
   viewBox="0 0 57.786552 57.75541"
   id="svg2"
   sodipodi:docname="logo-mark1.svg"
   inkscape:version="1.4.3 (0d15f75, 2025-12-25)"
   inkscape:export-filename="logo-mark1.png"
   inkscape:export-xdpi="96"
   inkscape:export-ydpi="96"
   xmlns:inkscape="http://www.inkscape.org/namespaces/inkscape"
   xmlns:sodipodi="http://sodipodi.sourceforge.net/DTD/sodipodi-0.dtd"
   xmlns="http://www.w3.org/2000/svg"
   xmlns:svg="http://www.w3.org/2000/svg">
  <defs
     id="defs2" />
  <sodipodi:namedview
     id="namedview2"
     pagecolor="#000000"
     bordercolor="#000000"
     borderopacity="0.25"
     inkscape:showpageshadow="false"
     inkscape:pageopacity="0.0"
     inkscape:pagecheckerboard="true"
     inkscape:deskcolor="#d1d1d1"
     inkscape:document-units="in"
     inkscape:zoom="0.41816874"
     inkscape:cx="1396.5654"
     inkscape:cy="1395.3697"
     inkscape:window-width="2560"
     inkscape:window-height="1369"
     inkscape:window-x="-8"
     inkscape:window-y="-8"
     inkscape:window-maximized="1"
     inkscape:current-layer="svg2"
     showborder="false"
     borderlayer="false" />
  <path
     id="path4"
     fill="none"
     stroke="black"
     stroke-width="1"
     d="m 24.934426,0.28838 c 29.02,-3.92 44.74,33.11 22,51.15 -3.83,3.03 -9.21,5.07 -14,5.93 -17.4,3.11 -34.4999995,-13.02 -32.81999954,-30.54 1.42000004,-14.9 10.71999954,-23.4 24.81999954,-26.54 z"
     style="display:inline;fill:#0a0a0a;fill-opacity:1;stroke:none">
    <title
       id="title4">moon</title>
  </path>
  <path
     id="path3"
     style="display:inline;fill:#e9dcc5;fill-opacity:1;stroke:none"
     d="m 30.214526,0.01958 c -1.7037,-0.0603 -3.4658,0.0236 -5.2795,0.26855 -3.7421,0.83333 -7.1358,2.05429 -10.1441,3.66211 -0.082,0.044 -0.1746,0.0774 -0.2563,0.12207 0,0.002 -0.01,0.004 -0.012,0.006 -1.0186,0.55657 -1.9937,1.16283 -2.9175,1.81274 3.0523,-1.85037 6.3736,-2.90513 10.3271,-3.75366 1.94,-0.1 3.0049,-0.28 5.0049,0 4.17,0.19 8.4195,1.45939 11.9995,3.61939 24.06,14.5 11.3576,50.88912 -15.002401,48.88912 -7.9744,-0.60763 -14.4724985,-4.38306 -18.8232985,-9.72899 0.764,1.09668 1.6015,2.14168 2.5025,3.1311 0.1231,0.13521 0.2651,0.25149 0.3906,0.38452 0.795,0.84274 1.619,1.66229 2.5023995,2.41089 0.031,0.0263 0.067,0.047 0.098,0.0732 0.993599,0.83536 2.036099,1.61146 3.124999,2.31323 1.1168,0.71953 2.2792,1.36647 3.479,1.92871 0.01,0.003 0.013,0.003 0.018,0.006 2.4103,1.12777 4.9669,1.92281 7.605001,2.31323 0,5.9e-4 0.01,-5.8e-4 0.012,0 0.6574,0.0969 1.3237,0.17396 1.9897,0.21973 0.6713,0.0461 1.3486,0.0629 2.0264,0.0549 1.351199,-0.016 2.7134,-0.14077 4.077199,-0.38452 4.79,-0.86 10.165301,-2.90261 13.9953,-5.93261 0.667901,-0.52988 1.296001,-1.07463 1.898201,-1.63574 0.3806,-0.35449 0.7255,-0.72657 1.0803,-1.09253 0.2337,-0.24116 0.4854,-0.47435 0.708,-0.72022 0.3105,-0.34285 0.5898,-0.6983 0.8789,-1.0498 0.2158,-0.26234 0.443,-0.52048 0.647,-0.78735 0.2546,-0.33302 0.4838,-0.67355 0.7202,-1.01319 0.2342,-0.33649 0.4731,-0.67066 0.6897,-1.01318 0.1766,-0.27927 0.3355,-0.56539 0.5005,-0.84839 0.2178,-0.37364 0.437,-0.74342 0.6348,-1.12304 0.1825,-0.3502 0.347,-0.7072 0.5127,-1.06202 0.1483,-0.31768 0.2984,-0.63721 0.4333,-0.95825 0.1514,-0.35997 0.2864,-0.72267 0.4212,-1.08642 0.1301,-0.35145 0.2574,-0.70136 0.3723,-1.05591 0.1197,-0.36938 0.2324,-0.73856 0.3357,-1.11084 0.066,-0.23734 0.1238,-0.47574 0.1831,-0.71411 0.3052,-1.22812 0.5252,-2.47175 0.6591,-3.71704 0.021,-0.19309 0.032,-0.38656 0.049,-0.57983 0.07,-0.80784 0.054,-1.61492 0.055,-2.4231 7e-4,-0.77683 -0.01,-1.55242 -0.067,-2.32543 -0.053,-0.67128 -0.1454,-1.33641 -0.2442,-2.00195 -0.1169,-0.7863 -0.2545,-1.56951 -0.4333,-2.34375 -0.1474,-0.63783 -0.3184,-1.27124 -0.5066,-1.8982 -0.2292,-0.76273 -0.4871,-1.51567 -0.7752,-2.25829 -0.2377,-0.613 -0.4923,-1.2162 -0.769,-1.81275 -0.3346,-0.72102 -0.7027,-1.42491 -1.0925,-2.11792 -0.322,-0.57221 -0.6486,-1.14028 -1.0071,-1.69067 -0.444,-0.68158 -0.93,-1.33365 -1.4282,-1.97754 -0.3886,-0.50203 -0.7758,-1.00657 -1.1963,-1.48315 -0.5595,-0.63405 -1.1681,-1.22221 -1.7822,-1.80664 -0.5095,-0.4848 -0.9985,-0.98696 -1.5442,-1.43432 -0.1758,-0.14409 -0.3516,-0.28725 -0.531,-0.42725 -0.9624,-0.75083 -1.9755,-1.44496 -3.0396,-2.06909 -0.3063,-0.1797 -0.6194,-0.35042 -0.9338,-0.5188 -0.2814,-0.15064 -0.5607,-0.30426 -0.8484,-0.44556 -0.4012,-0.19705 -0.8135,-0.37713 -1.2268,-0.55541 -0.2776,-0.11971 -0.5533,-0.24304 -0.8362,-0.35401 -0.4276,-0.16776 -0.8666,-0.31668 -1.3062,-0.46387 -0.2882,-0.0965 -0.5734,-0.19948 -0.8666,-0.28686 -0.4565,-0.13601 -0.9233,-0.24682 -1.3917,-0.36011 -0.2973,-0.0719 -0.589,-0.1511 -0.8911,-0.21362 -0.4852,-0.10041 -0.9861,-0.17483 -1.4831,-0.25024 -0.2879,-0.0437 -0.5689,-0.10532 -0.8606,-0.14039 -0.7989,-0.0961 -1.6083,-0.15994 -2.4353,-0.1892 z M 1.0153265,36.36599 c 0.2178,0.76258 0.4683,1.51185 0.7507,2.25219 -0.283,-0.7411 -0.5324,-1.48879 -0.7507,-2.25219 z m 1.7822,4.62035 c 0.3204,0.65503 0.6629,1.29264 1.0315,1.92261 -0.3676,-0.62831 -0.7117,-1.26939 -1.0315,-1.92261 z">
    <title
       id="title3">moon</title>
  </path>
</svg>
