<?xml version="1.0" encoding="UTF-8" standalone="no"?>
<svg
   version="1.1"
   width="6.92667in"
   height="3.95667in"
   viewBox="0 0 2078 1187"
   id="svg2"
   sodipodi:docname="logo-mark1-crescent.svg"
   inkscape:version="1.4.3 (0d15f75, 2025-12-25)"
   inkscape:export-filename="logo-mark1-crescent.png"
   inkscape:export-xdpi="2597.2102"
   inkscape:export-ydpi="2597.2102"
   xmlns:inkscape="http://www.inkscape.org/namespaces/inkscape"
   xmlns:sodipodi="http://sodipodi.sourceforge.net/DTD/sodipodi-0.dtd"
   xmlns="http://www.w3.org/2000/svg"
   xmlns:svg="http://www.w3.org/2000/svg">
  <defs
     id="defs2" />
  <sodipodi:namedview
     id="namedview2"
     pagecolor="#000000"
     bordercolor="#000000"
     borderopacity="0.25"
     inkscape:showpageshadow="2"
     inkscape:pageopacity="0.0"
     inkscape:pagecheckerboard="0"
     inkscape:deskcolor="#d1d1d1"
     inkscape:document-units="in"
     inkscape:zoom="34.7596"
     inkscape:cx="422.57391"
     inkscape:cy="222.16884"
     inkscape:window-width="2560"
     inkscape:window-height="1369"
     inkscape:window-x="-8"
     inkscape:window-y="-8"
     inkscape:window-maximized="1"
     inkscape:current-layer="svg2" />
  <path
     id="path1"
     style="stroke:none;fill:#e9dcc5;fill-opacity:1"
     d="M 1344.2801 665.1912 C 1342.5764 665.13091 1340.8143 665.21475 1339.0006 665.45975 C 1333.8725 666.60173 1329.3805 668.45284 1325.6705 671.06277 C 1328.7228 669.2124 1332.0441 668.15764 1335.9976 667.30911 C 1337.9376 667.20911 1339.0025 667.02911 1341.0025 667.30911 C 1345.1725 667.49911 1349.422 668.7685 1353.002 670.9285 C 1377.062 685.4285 1364.3596 721.81762 1337.9996 719.81762 C 1330.0252 719.20999 1323.5271 715.43456 1319.1763 710.08863 C 1325.2943 718.87025 1336.0897 724.49026 1347.0023 722.53979 C 1351.7923 721.67979 1357.1676 719.63718 1360.9976 716.60718 C 1382.3164 699.69468 1369.8356 666.09552 1344.2801 665.1912 z ">
    <title
       id="title1">moon</title>
  </path>
</svg>
